<svg width="44" height="45" viewBox="0 0 44 45" fill="none" xmlns="http://www.w3.org/2000/svg">
<path fill-rule="evenodd" clip-rule="evenodd" d="M15.5319 19.5605C14.1512 19.5589 13.0306 20.6768 13.0289 22.0575C13.0273 23.4383 14.1453 24.5589 15.526 24.5605C16.9067 24.5622 18.0273 23.4442 18.0289 22.0635C18.0306 20.6828 16.9126 19.5622 15.5319 19.5605ZM21.4146 27.4529C21.0181 27.8452 21.0192 28.4862 21.4171 28.8771L21.904 29.3554C22.294 29.7385 22.9194 29.7374 23.3081 29.3529L29.975 22.7572C30.3706 22.3658 30.3706 21.7268 29.975 21.3354L23.3081 14.7396C22.9194 14.3551 22.294 14.354 21.904 14.7371L21.4171 15.2154C21.0192 15.6064 21.018 16.2473 21.4146 16.6397L26.161 21.3354C26.5566 21.7267 26.5566 22.3658 26.161 22.7572L21.4146 27.4529Z" fill="#AFAFAF"/>
</svg>
