<svg width="30" height="30" viewBox="0 0 30 30" fill="none" xmlns="http://www.w3.org/2000/svg">
<rect width="30" height="30" rx="6" fill="white"/>
<path d="M6.23397 10.698C6.46164 10.6221 7.20758 10.6448 7.82769 10.698C8.54873 10.76 9.57319 10.9257 9.64908 11.0395C9.85964 11.3802 11.4363 14.2341 11.9258 14.8523C12.421 15.4775 13.0471 14.2831 13.0471 12.9739C13.0471 12.0531 12.3243 10.8308 11.9258 10.9257C12.0169 10.1061 13.6732 10.128 14.8856 10.2427C15.6222 10.3124 16.5173 10.8688 16.4793 11.2672V14.6254C16.8891 16.5379 19.5529 13.2082 19.5529 11.4949C19.5529 11.2672 19.4789 10.698 20.3498 10.698H23.3095C24.4308 11.2672 23.0629 13.1266 21.9435 14.4547C20.714 15.7296 21.3174 16.6745 21.3174 16.6745L23.3095 18.7805C24.9488 20.5108 22.7801 20.4311 21.9435 20.4311C20.5359 20.4311 19.7635 19.9749 17.6006 18.3812C17.0719 17.9917 16.4983 18.6287 16.4793 19.6342C16.5704 20.5449 15.8361 20.4311 14.8856 20.4311C10.2581 19.9749 8.43668 17.9828 6.23397 11.7795C6.09265 11.3815 6.00629 10.7739 6.23397 10.698Z" fill="#242424"/>
</svg>
