<svg width="24" height="24" viewBox="0 0 24 24" fill="none" xmlns="http://www.w3.org/2000/svg">
<rect width="24" height="24" rx="5" fill="white"/>
<path d="M4.98717 8.55823C5.16931 8.49752 5.76607 8.51562 6.26215 8.55823C6.83898 8.60777 7.65855 8.74037 7.71926 8.83144C7.88771 9.10398 9.14902 11.387 9.54066 11.8816C9.93678 12.3818 10.4377 11.4263 10.4377 10.379C10.4377 9.64225 9.8594 8.66448 9.54066 8.74037C9.61351 8.08467 10.9385 8.10222 11.9085 8.19395C12.4978 8.24968 13.2138 8.69483 13.1834 9.01358V11.7001C13.5113 13.2301 15.6423 10.5664 15.6423 9.19572C15.6423 9.01358 15.5831 8.55823 16.2798 8.55823H18.6476C19.5446 9.01358 18.4503 10.501 17.5548 11.5635C16.5712 12.5835 17.0539 13.3394 17.0539 13.3394L18.6476 15.0242C19.959 16.4084 18.2241 16.3447 17.5548 16.3447C16.4287 16.3447 15.8108 15.9797 14.0804 14.7048C13.6575 14.3931 13.1986 14.9027 13.1834 15.7072C13.2563 16.4358 12.6689 16.3447 11.9085 16.3447C8.20646 15.9797 6.74934 14.386 4.98717 9.42339C4.87412 9.105 4.80504 8.61894 4.98717 8.55823Z" fill="#242424"/>
</svg>
